<?xml version="1.0" encoding="UTF-8" standalone="no"?>
<!-- Created with Inkscape (http://www.inkscape.org/) -->

<svg
   xmlns:dc="http://purl.org/dc/elements/1.1/"
   xmlns:cc="http://creativecommons.org/ns#"
   xmlns:rdf="http://www.w3.org/1999/02/22-rdf-syntax-ns#"
   xmlns:svg="http://www.w3.org/2000/svg"
   xmlns="http://www.w3.org/2000/svg"
   xmlns:sodipodi="http://sodipodi.sourceforge.net/DTD/sodipodi-0.dtd"
   xmlns:inkscape="http://www.inkscape.org/namespaces/inkscape"
   width="200"
   height="92.547058"
   id="svg3719"
   version="1.1"
   inkscape:version="0.48.4 r9939"
   sodipodi:docname="New document 4">
  <defs
     id="defs3721">
    <clipPath
       clipPathUnits="userSpaceOnUse"
       id="clipPath250">
      <path
         inkscape:connector-curvature="0"
         d="m 0,0 595.276,0 0,765.354 L 0,765.354 0,0 z"
         id="path252" />
    </clipPath>
    <clipPath
       clipPathUnits="userSpaceOnUse"
       id="clipPath234">
      <path
         inkscape:connector-curvature="0"
         d="m 0,0 595.276,0 0,765.354 L 0,765.354 0,0 z"
         id="path236" />
    </clipPath>
    <clipPath
       clipPathUnits="userSpaceOnUse"
       id="clipPath208">
      <path
         inkscape:connector-curvature="0"
         d="m 0,0 595.276,0 0,765.354 L 0,765.354 0,0 z"
         id="path210" />
    </clipPath>
    <clipPath
       clipPathUnits="userSpaceOnUse"
       id="clipPath154">
      <path
         inkscape:connector-curvature="0"
         d="m 0,0 595.276,0 0,765.354 L 0,765.354 0,0 z"
         id="path156" />
    </clipPath>
    <clipPath
       clipPathUnits="userSpaceOnUse"
       id="clipPath134">
      <path
         inkscape:connector-curvature="0"
         d="m 0,0 595.276,0 0,765.354 L 0,765.354 0,0 z"
         id="path136" />
    </clipPath>
    <clipPath
       clipPathUnits="userSpaceOnUse"
       id="clipPath104">
      <path
         inkscape:connector-curvature="0"
         d="m 0,0 595.276,0 0,765.354 L 0,765.354 0,0 z"
         id="path106" />
    </clipPath>
    <clipPath
       clipPathUnits="userSpaceOnUse"
       id="clipPath48">
      <path
         inkscape:connector-curvature="0"
         d="m 0,0 595.276,0 0,765.354 L 0,765.354 0,0 z"
         id="path50" />
    </clipPath>
    <clipPath
       clipPathUnits="userSpaceOnUse"
       id="clipPath20">
      <path
         inkscape:connector-curvature="0"
         d="m 0,0 595.276,0 0,765.354 L 0,765.354 0,0 z"
         id="path22" />
    </clipPath>
  </defs>
  <sodipodi:namedview
     id="base"
     pagecolor="#ffffff"
     bordercolor="#666666"
     borderopacity="1.0"
     inkscape:pageopacity="0.0"
     inkscape:pageshadow="2"
     inkscape:zoom="7.0967392"
     inkscape:cx="91.890112"
     inkscape:cy="49.367229"
     inkscape:document-units="px"
     inkscape:current-layer="layer1"
     showgrid="false"
     fit-margin-top="0"
     fit-margin-left="0"
     fit-margin-right="0"
     fit-margin-bottom="0"
     inkscape:window-width="1920"
     inkscape:window-height="1003"
     inkscape:window-x="-9"
     inkscape:window-y="-9"
     inkscape:window-maximized="1" />
  <metadata
     id="metadata3724">
    <rdf:RDF>
      <cc:Work
         rdf:about="">
        <dc:format>image/svg+xml</dc:format>
        <dc:type
           rdf:resource="http://purl.org/dc/dcmitype/StillImage" />
        <dc:title></dc:title>
      </cc:Work>
    </rdf:RDF>
  </metadata>
  <g
     inkscape:label="Layer 1"
     inkscape:groupmode="layer"
     id="layer1"
     transform="translate(-346.61481,-563.03443)">
    <g
       id="g4276"
       transform="matrix(1.0708336,0,0,1.0708336,-24.551978,-46.437203)">
      <g
         id="g4236">
        <path
           id="path14"
           style="fill:#004fa3;fill-opacity:1;fill-rule:nonzero;stroke:none"
           d="m 415.36081,599.78223 1.0675,0 4.75625,10.6675 -1.55375,0 -1.415,-3.1425 -4.52375,0 -1.32625,3.1425 -1.56,0 4.555,-10.6675 z m 2.23125,6.17375 -1.71125,-3.84375 -1.58625,3.84375 3.2975,0 z"
           inkscape:connector-curvature="0" />
        <path
           id="path26"
           style="fill:#004fa3;fill-opacity:1;fill-rule:nonzero;stroke:none"
           d="m 421.80019,605.87888 c 0,-0.74375 0.27125,-1.3325 0.81625,-1.76625 0.54375,-0.4325 1.2875,-0.64875 2.22875,-0.64875 l 2.8775,0 0,1.08 -1.41125,0 c 0.2725,0.2775 0.4625,0.53125 0.5675,0.7575 0.10875,0.22875 0.16,0.48875 0.16,0.78375 0,0.36375 -0.10375,0.72125 -0.31,1.07375 -0.20875,0.3525 -0.475,0.62125 -0.8025,0.80875 -0.32625,0.18625 -0.86,0.33625 -1.60625,0.44875 -0.52,0.0738 -0.78,0.255 -0.78,0.53875 0,0.16125 0.0962,0.29375 0.29,0.3975 0.19625,0.10375 0.54875,0.21125 1.06125,0.32125 0.855,0.18875 1.405,0.335 1.65125,0.4425 0.245,0.10625 0.46625,0.25875 0.66375,0.45625 0.33375,0.3325 0.50125,0.7525 0.50125,1.25875 0,0.665 -0.295,1.1925 -0.88375,1.58875 -0.59,0.39375 -1.37875,0.59 -2.36625,0.59 -0.99625,0 -1.79375,-0.19625 -2.3875,-0.59625 -0.595,-0.39625 -0.89375,-0.93 -0.89375,-1.5975 0,-0.94625 0.58625,-1.55625 1.755,-1.83 -0.46625,-0.2975 -0.6975,-0.59375 -0.6975,-0.8875 0,-0.22375 0.1,-0.42625 0.3,-0.60875 0.19875,-0.18125 0.47,-0.315 0.80875,-0.40125 -1.0275,-0.45625 -1.5425,-1.1925 -1.5425,-2.21 m 2.27,4.89875 c -0.465,0 -0.84625,0.0975 -1.1425,0.295 -0.295,0.1975 -0.445,0.45 -0.445,0.75875 0,0.72125 0.64875,1.07875 1.94375,1.07875 0.61375,0 1.0875,-0.0888 1.425,-0.27 0.335,-0.18 0.50625,-0.435 0.50625,-0.7625 0,-0.325 -0.21375,-0.58875 -0.63875,-0.79375 -0.42625,-0.205 -0.975,-0.30625 -1.64875,-0.30625 m 0.3275,-6.11375 c -0.375,0 -0.695,0.12625 -0.9575,0.37875 -0.26375,0.25375 -0.39375,0.5575 -0.39375,0.9125 0,0.35875 0.12875,0.65625 0.38625,0.8925 0.25875,0.235 0.58375,0.35125 0.98,0.35125 0.38875,0 0.715,-0.11875 0.975,-0.35875 0.26125,-0.24125 0.39125,-0.54125 0.39125,-0.9 0,-0.365 -0.13125,-0.66875 -0.395,-0.9125 -0.26375,-0.2425 -0.5925,-0.36375 -0.98625,-0.36375"
           inkscape:connector-curvature="0" />
        <path
           id="path30"
           style="fill:#004fa3;fill-opacity:1;fill-rule:nonzero;stroke:none"
           d="m 434.74719,607.078 -4.91375,0 c 0.0362,0.67 0.26125,1.2 0.6725,1.595 0.41125,0.395 0.945,0.5925 1.59875,0.5925 0.91,0 1.75125,-0.2825 2.52,-0.85 l 0,1.3525 c -0.425,0.28375 -0.84625,0.485 -1.26375,0.60625 -0.4175,0.12 -0.9075,0.1825 -1.47,0.1825 -0.76875,0 -1.39125,-0.16 -1.8675,-0.47875 -0.47625,-0.31875 -0.85625,-0.7475 -1.14125,-1.28625 -0.2875,-0.54 -0.43,-1.16375 -0.43,-1.8725 0,-1.0625 0.30125,-1.9275 0.90375,-2.59375 0.6025,-0.66625 1.3825,-0.99875 2.34625,-0.99875 0.9275,0 1.665,0.325 2.2175,0.97375 0.5525,0.64625 0.8275,1.515 0.8275,2.60375 l 0,0.17375 z m -4.8825,-0.82625 3.515,0 c -0.035,-0.55375 -0.2,-0.97625 -0.49375,-1.27625 -0.2925,-0.3 -0.6875,-0.4475 -1.18375,-0.4475 -0.49625,0 -0.9025,0.1475 -1.21875,0.4475 -0.31625,0.3 -0.52375,0.7225 -0.61875,1.27625"
           inkscape:connector-curvature="0" />
        <path
           id="path34"
           style="fill:#004fa3;fill-opacity:1;fill-rule:nonzero;stroke:none"
           d="m 437.62556,603.464 0,0.88875 c 0.61625,-0.6825 1.31875,-1.025 2.1025,-1.025 0.43625,0 0.84125,0.1125 1.215,0.33875 0.37375,0.22375 0.66125,0.53375 0.855,0.92625 0.195,0.39125 0.29125,1.01375 0.29125,1.8625 l 0,3.995 -1.38125,0 0,-3.97875 c 0,-0.71375 -0.11,-1.22375 -0.32625,-1.52875 -0.2175,-0.30875 -0.5825,-0.46125 -1.0925,-0.46125 -0.655,0 -1.20875,0.32625 -1.66375,0.98 l 0,4.98875 -1.4125,0 0,-6.98625 1.4125,0 z"
           inkscape:connector-curvature="0" />
        <path
           id="path38"
           style="fill:#004fa3;fill-opacity:1;fill-rule:nonzero;stroke:none"
           d="m 449.25881,608.8175 0,1.3675 c -0.69375,0.2575 -1.37375,0.3875 -2.03625,0.3875 -1.0925,0 -1.96375,-0.325 -2.615,-0.9725 -0.65125,-0.6475 -0.97625,-1.51625 -0.97625,-2.605 0,-1.09875 0.31875,-1.98375 0.94875,-2.65625 0.6325,-0.675 1.465,-1.01125 2.5,-1.01125 0.3575,0 0.68125,0.0338 0.9675,0.10375 0.28375,0.0675 0.63875,0.195 1.05875,0.38125 l 0,1.47375 c -0.69875,-0.445 -1.3475,-0.6675 -1.945,-0.6675 -0.6225,0 -1.13375,0.21875 -1.535,0.65625 -0.39875,0.4375 -0.59875,0.995 -0.59875,1.675 0,0.71375 0.21625,1.27875 0.65125,1.70125 0.43125,0.41875 1.01625,0.63 1.74875,0.63 0.5325,0 1.14125,-0.15375 1.83125,-0.46375"
           inkscape:connector-curvature="0" />
        <path
           id="path42"
           style="fill:#004fa3;fill-opacity:1;fill-rule:nonzero;stroke:none"
           d="m 455.11745,603.46398 1.55125,0 -4.95,10.5475 -1.54125,0 2.37,-5.06125 -2.6975,-5.48625 1.575,0 1.88625,3.94625 1.80625,-3.94625 z"
           inkscape:connector-curvature="0" />
        <path
           id="path54"
           style="fill:#004fa3;fill-opacity:1;fill-rule:nonzero;stroke:none"
           d="m 462.12244,603.464 0,-0.4175 c 0,-1.12375 0.23875,-1.96125 0.7175,-2.51375 0.4775,-0.55125 1.05125,-0.8275 1.71875,-0.8275 0.28875,0 0.63125,0.0462 1.0275,0.13625 l 0,1.3525 c -0.225,-0.0812 -0.4375,-0.12125 -0.64125,-0.12125 -0.54125,0 -0.91625,0.14375 -1.12625,0.4325 -0.21,0.2875 -0.31625,0.8025 -0.31625,1.54125 l 0,0.4175 1.2475,0 0,1.24625 -1.2475,0 0,5.74 -1.38,0 0,-5.74 -1.005,0 0,-1.24625 1.005,0 z"
           inkscape:connector-curvature="0" />
        <path
           id="path58"
           style="fill:#004fa3;fill-opacity:1;fill-rule:nonzero;stroke:none"
           d="m 469.03956,603.44875 c 1.0625,0 1.94625,0.34375 2.65,1.02875 0.70375,0.6875 1.05375,1.54875 1.05375,2.58625 0,1.0075 -0.35625,1.84375 -1.06875,2.51 -0.715,0.665 -1.615,0.99875 -2.69625,0.99875 -1.04875,0 -1.92375,-0.3375 -2.62875,-1.01375 -0.7025,-0.67625 -1.05375,-1.52 -1.05375,-2.53375 0,-1.02125 0.35625,-1.875 1.0675,-2.55375 0.71125,-0.68125 1.6025,-1.0225 2.67625,-1.0225 m -0.0775,1.245 c -0.6625,0 -1.20625,0.21875 -1.63125,0.65375 -0.42625,0.435 -0.63875,0.98875 -0.63875,1.6625 0,0.66875 0.2175,1.21375 0.655,1.6375 0.43375,0.42125 0.99375,0.63375 1.67625,0.63375 0.67875,0 1.23375,-0.21375 1.6675,-0.64125 0.4325,-0.42875 0.64875,-0.9775 0.64875,-1.645 0,-0.6625 -0.225,-1.2125 -0.67625,-1.6475 -0.45,-0.435 -1.0175,-0.65375 -1.70125,-0.65375"
           inkscape:connector-curvature="0" />
        <path
           id="path62"
           style="fill:#004fa3;fill-opacity:1;fill-rule:nonzero;stroke:none"
           d="m 475.75919,603.464 0,1.60375 0.0763,-0.1225 c 0.66875,-1.07875 1.33625,-1.6175 2.005,-1.6175 0.52,0 1.065,0.2625 1.63375,0.79 l -0.73125,1.21375 c -0.48125,-0.455 -0.92625,-0.6825 -1.335,-0.6825 -0.44875,0 -0.83375,0.2125 -1.15875,0.6375 -0.32625,0.42625 -0.49,0.92875 -0.49,1.51125 l 0,3.6525 -1.38875,0 0,-6.98625 1.38875,0 z"
           inkscape:connector-curvature="0" />
        <path
           id="path66"
           style="fill:#004fa3;fill-opacity:1;fill-rule:nonzero;stroke:none"
           d="m 414.60206,622.33413 -1.155,-0.7 c -0.72375,-0.4425 -1.23875,-0.87625 -1.545,-1.305 -0.30625,-0.4275 -0.45875,-0.92125 -0.45875,-1.4775 0,-0.83625 0.29,-1.51375 0.86875,-2.035 0.58,-0.51875 1.33375,-0.78 2.25875,-0.78 0.88625,0 1.69875,0.2475 2.43875,0.745 l 0,1.72375 c -0.765,-0.73375 -1.5875,-1.1025 -2.46875,-1.1025 -0.495,0 -0.90375,0.11375 -1.2225,0.34375 -0.31875,0.23 -0.4775,0.52375 -0.4775,0.88125 0,0.31625 0.11625,0.61375 0.3525,0.8925 0.235,0.275 0.61125,0.56875 1.1325,0.8725 l 1.16125,0.685 c 1.2925,0.77625 1.94,1.76 1.94,2.9525 0,0.85 -0.285,1.5425 -0.855,2.07375 -0.56875,0.53125 -1.31,0.7975 -2.22125,0.7975 -1.0475,0 -2.0025,-0.32125 -2.86125,-0.9675 l 0,-1.92875 c 0.81875,1.0375 1.7675,1.55875 2.84625,1.55875 0.47625,0 0.8725,-0.13375 1.18875,-0.3975 0.31625,-0.265 0.47375,-0.59625 0.47375,-0.99375 0,-0.645 -0.465,-1.26125 -1.39625,-1.83875"
           inkscape:connector-curvature="0" />
        <path
           id="path70"
           style="fill:#004fa3;fill-opacity:1;fill-rule:nonzero;stroke:none"
           d="m 424.14607,625.147 0,1.3675 c -0.6925,0.25625 -1.37125,0.3875 -2.035,0.3875 -1.09375,0 -1.965,-0.3225 -2.61625,-0.97625 -0.65125,-0.645 -0.975,-1.51125 -0.975,-2.60125 0,-1.0975 0.31625,-1.98625 0.95,-2.65875 0.6325,-0.675 1.465,-1.01125 2.4975,-1.01125 0.36,0 0.68125,0.0388 0.96875,0.10375 0.285,0.07 0.6375,0.19875 1.05875,0.385 l 0,1.4725 c -0.69875,-0.4475 -1.3475,-0.6675 -1.945,-0.6675 -0.62125,0 -1.1325,0.21875 -1.5325,0.65625 -0.40125,0.4375 -0.6,0.99625 -0.6,1.675 0,0.71375 0.215,1.28 0.6475,1.7 0.43375,0.42375 1.01875,0.62875 1.75125,0.62875 0.5325,0 1.1425,-0.15375 1.83,-0.46125"
           inkscape:connector-curvature="0" />
        <path
           id="path74"
           style="fill:#004fa3;fill-opacity:1;fill-rule:nonzero;stroke:none"
           d="m 426.43244,616.85263 c 0.22625,0 0.42125,0.0788 0.58375,0.23625 0.1625,0.1575 0.24375,0.35125 0.24375,0.57875 0,0.225 -0.0812,0.415 -0.24375,0.57875 -0.1625,0.16 -0.3575,0.2425 -0.58375,0.2425 -0.2125,0 -0.4,-0.0825 -0.56125,-0.24875 -0.1625,-0.16375 -0.245,-0.355 -0.245,-0.5725 0,-0.21125 0.0825,-0.4025 0.245,-0.56625 0.16125,-0.1625 0.34875,-0.24875 0.56125,-0.24875 m -0.68375,2.94 1.3825,0 0,6.98625 -1.3825,0 0,-6.98625 z"
           inkscape:connector-curvature="0" />
        <path
           id="path78"
           style="fill:#004fa3;fill-opacity:1;fill-rule:nonzero;stroke:none"
           d="m 435.08169,623.40938 -4.91375,0 c 0.0337,0.66625 0.26,1.2 0.6725,1.5925 0.4125,0.39625 0.945,0.59375 1.59875,0.59375 0.91,0 1.75125,-0.28625 2.52125,-0.85125 l 0,1.35125 c -0.42625,0.28375 -0.8475,0.48625 -1.26375,0.6075 -0.41875,0.12375 -0.90875,0.185 -1.47,0.185 -0.77,0 -1.3925,-0.16125 -1.87,-0.47875 -0.475,-0.3225 -0.855,-0.75125 -1.14125,-1.29 -0.28625,-0.53875 -0.43,-1.16125 -0.43,-1.87 0,-1.0625 0.30125,-1.92875 0.90375,-2.5925 0.6025,-0.66875 1.38375,-1.0025 2.34625,-1.0025 0.9275,0 1.66625,0.32625 2.2175,0.97375 0.5525,0.6475 0.82875,1.51625 0.82875,2.605 l 0,0.17625 z m -4.8825,-0.82875 3.515,0 c -0.035,-0.55125 -0.2,-0.9775 -0.4925,-1.27375 -0.295,-0.3025 -0.69,-0.44875 -1.18625,-0.44875 -0.495,0 -0.9025,0.14625 -1.21875,0.44875 -0.31625,0.29625 -0.5225,0.7225 -0.6175,1.27375"
           inkscape:connector-curvature="0" />
        <path
           id="path82"
           style="fill:#004fa3;fill-opacity:1;fill-rule:nonzero;stroke:none"
           d="m 437.95856,619.79213 0,0.89 c 0.61875,-0.68375 1.32,-1.0275 2.10375,-1.0275 0.435,0 0.84,0.11375 1.215,0.34125 0.375,0.2225 0.66,0.53125 0.855,0.925 0.19375,0.39375 0.29125,1.01375 0.29125,1.86375 l 0,3.99375 -1.38125,0 0,-3.9775 c 0,-0.715 -0.11,-1.22375 -0.3275,-1.53125 -0.2175,-0.305 -0.58125,-0.45875 -1.0925,-0.45875 -0.65375,0 -1.2075,0.325 -1.66375,0.98 l 0,4.9875 -1.41125,0 0,-6.98625 1.41125,0 z"
           inkscape:connector-curvature="0" />
        <path
           id="path86"
           style="fill:#004fa3;fill-opacity:1;fill-rule:nonzero;stroke:none"
           d="m 449.59281,625.147 0,1.3675 c -0.695,0.25625 -1.3725,0.3875 -2.03625,0.3875 -1.0925,0 -1.965,-0.3225 -2.61625,-0.97625 -0.65,-0.645 -0.97375,-1.51125 -0.97375,-2.60125 0,-1.0975 0.315,-1.98625 0.94875,-2.65875 0.63375,-0.675 1.465,-1.01125 2.49875,-1.01125 0.3575,0 0.68,0.0388 0.96625,0.10375 0.28625,0.07 0.64,0.19875 1.05875,0.385 l 0,1.4725 c -0.6975,-0.4475 -1.34625,-0.6675 -1.9425,-0.6675 -0.62375,0 -1.13375,0.21875 -1.535,0.65625 -0.4,0.4375 -0.59875,0.99625 -0.59875,1.675 0,0.71375 0.21625,1.28 0.65,1.7 0.4325,0.42375 1.015,0.62875 1.74875,0.62875 0.5325,0 1.14125,-0.15375 1.83125,-0.46125"
           inkscape:connector-curvature="0" />
        <path
           id="path90"
           style="fill:#004fa3;fill-opacity:1;fill-rule:nonzero;stroke:none"
           d="m 457.11731,623.40938 -4.9125,0 c 0.035,0.66625 0.25875,1.2 0.6725,1.5925 0.41125,0.39625 0.945,0.59375 1.5975,0.59375 0.91125,0 1.75125,-0.28625 2.52125,-0.85125 l 0,1.35125 c -0.425,0.28375 -0.8475,0.48625 -1.265,0.6075 -0.4175,0.12375 -0.90625,0.185 -1.47,0.185 -0.7675,0 -1.39125,-0.16125 -1.8675,-0.47875 -0.475,-0.3225 -0.85625,-0.75125 -1.1425,-1.29 -0.285,-0.53875 -0.43,-1.16125 -0.43,-1.87 0,-1.0625 0.3025,-1.92875 0.905,-2.5925 0.6025,-0.66875 1.38375,-1.0025 2.34625,-1.0025 0.9275,0 1.665,0.32625 2.21625,0.97375 0.55375,0.6475 0.82875,1.51625 0.82875,2.605 l 0,0.17625 z m -4.8825,-0.82875 3.51625,0 c -0.0362,-0.55125 -0.2,-0.9775 -0.49375,-1.27375 -0.29375,-0.3025 -0.6875,-0.44875 -1.185,-0.44875 -0.49625,0 -0.9025,0.14625 -1.21875,0.44875 -0.315,0.29625 -0.52375,0.7225 -0.61875,1.27375"
           inkscape:connector-curvature="0" />
        <path
           id="path94"
           style="fill:#004fa3;fill-opacity:1;fill-rule:nonzero;stroke:none"
           d="m 458.70556,628.6185 0,-0.2825 c 0.22625,-0.2175 0.38625,-0.435 0.4775,-0.655 0.0913,-0.22125 0.14375,-0.52125 0.15875,-0.9025 -0.53625,-0.15625 -0.80625,-0.4875 -0.80625,-0.9925 0,-0.27375 0.0937,-0.5125 0.27875,-0.7125 0.185,-0.19875 0.40375,-0.3 0.65625,-0.3 0.30875,0 0.56125,0.13625 0.75875,0.4125 0.19875,0.27375 0.29875,0.62125 0.29875,1.04625 0,0.56125 -0.16375,1.0575 -0.4875,1.4825 -0.32375,0.425 -0.77,0.725 -1.335,0.90375"
           inkscape:connector-curvature="0" />
        <path
           id="path98"
           style="fill:#004fa3;fill-opacity:1;fill-rule:nonzero;stroke:none"
           d="m 462.43956,616.15723 8.86125,0 0,1.34875 -3.6975,0 0,9.27375 -1.525,0 0,-9.27375 -3.63875,0 0,-1.34875 z"
           inkscape:connector-curvature="0" />
        <path
           id="path110"
           style="fill:#004fa3;fill-opacity:1;fill-rule:nonzero;stroke:none"
           d="m 476.16919,623.40938 -4.9125,0 c 0.035,0.66625 0.25875,1.2 0.6725,1.5925 0.41125,0.39625 0.94375,0.59375 1.5975,0.59375 0.91125,0 1.75125,-0.28625 2.52125,-0.85125 l 0,1.35125 c -0.42625,0.28375 -0.84875,0.48625 -1.265,0.6075 -0.4175,0.12375 -0.9075,0.185 -1.46875,0.185 -0.77,0 -1.39375,-0.16125 -1.86875,-0.47875 -0.475,-0.3225 -0.85625,-0.75125 -1.1425,-1.29 -0.285,-0.53875 -0.43,-1.16125 -0.43,-1.87 0,-1.0625 0.30125,-1.92875 0.905,-2.5925 0.60375,-0.66875 1.38375,-1.0025 2.345,-1.0025 0.9275,0 1.665,0.32625 2.2175,0.97375 0.5525,0.6475 0.82875,1.51625 0.82875,2.605 l 0,0.17625 z m -4.8825,-0.82875 3.51625,0 c -0.0362,-0.55125 -0.2,-0.9775 -0.49375,-1.27375 -0.2925,-0.3025 -0.68875,-0.44875 -1.18625,-0.44875 -0.495,0 -0.9,0.14625 -1.2175,0.44875 -0.315,0.29625 -0.52375,0.7225 -0.61875,1.27375"
           inkscape:connector-curvature="0" />
        <path
           id="path114"
           style="fill:#004fa3;fill-opacity:1;fill-rule:nonzero;stroke:none"
           d="m 482.90456,625.147 0,1.3675 c -0.6925,0.25625 -1.3725,0.3875 -2.035,0.3875 -1.09375,0 -1.965,-0.3225 -2.61625,-0.97625 -0.65125,-0.645 -0.975,-1.51125 -0.975,-2.60125 0,-1.0975 0.31625,-1.98625 0.94875,-2.65875 0.6325,-0.675 1.465,-1.01125 2.49625,-1.01125 0.36125,0 0.68375,0.0388 0.97,0.10375 0.285,0.07 0.6375,0.19875 1.05875,0.385 l 0,1.4725 c -0.6975,-0.4475 -1.34625,-0.6675 -1.94375,-0.6675 -0.6225,0 -1.13375,0.21875 -1.53375,0.65625 -0.39875,0.4375 -0.59875,0.99625 -0.59875,1.675 0,0.71375 0.215,1.28 0.64875,1.7 0.4325,0.42375 1.01625,0.62875 1.75,0.62875 0.5325,0 1.14125,-0.15375 1.83,-0.46125"
           inkscape:connector-curvature="0" />
        <path
           id="path118"
           style="fill:#004fa3;fill-opacity:1;fill-rule:nonzero;stroke:none"
           d="m 484.44644,616.17213 1.38125,0 0,4.54 c 0.5775,-0.70125 1.2925,-1.0575 2.14875,-1.0575 0.46625,0 0.88375,0.12125 1.2525,0.3525 0.37,0.2325 0.645,0.5525 0.825,0.96375 0.18,0.41 0.27,1.01875 0.27,1.83 l 0,3.9775 -1.385,0 0,-4.32 c 0,-0.51 -0.1225,-0.9225 -0.37375,-1.235 -0.25,-0.31125 -0.58,-0.465 -0.9925,-0.465 -0.30125,0 -0.5875,0.0788 -0.8575,0.23625 -0.2675,0.15625 -0.56375,0.4175 -0.8875,0.78 l 0,5.00375 -1.38125,0 0,-10.60625 z"
           inkscape:connector-curvature="0" />
        <path
           id="path122"
           style="fill:#004fa3;fill-opacity:1;fill-rule:nonzero;stroke:none"
           d="m 493.63294,619.79213 0,0.89 c 0.6175,-0.68375 1.32125,-1.0275 2.10375,-1.0275 0.43625,0 0.84125,0.11375 1.215,0.34125 0.375,0.2225 0.66,0.53125 0.855,0.925 0.195,0.39375 0.2925,1.01375 0.2925,1.86375 l 0,3.99375 -1.3825,0 0,-3.9775 c 0,-0.715 -0.11,-1.22375 -0.325,-1.53125 -0.21875,-0.305 -0.58375,-0.45875 -1.09625,-0.45875 -0.65125,0 -1.2075,0.325 -1.6625,0.98 l 0,4.9875 -1.41125,0 0,-6.98625 1.41125,0 z"
           inkscape:connector-curvature="0" />
        <path
           id="path126"
           style="fill:#004fa3;fill-opacity:1;fill-rule:nonzero;stroke:none"
           d="m 503.36856,619.77775 c 1.06375,0 1.94625,0.345 2.65,1.03 0.70375,0.68375 1.055,1.5475 1.055,2.58625 0,1.005 -0.35625,1.845 -1.06875,2.51125 -0.715,0.665 -1.615,0.99625 -2.69625,0.99625 -1.04875,0 -1.925,-0.3375 -2.62625,-1.0125 -0.70375,-0.67875 -1.0575,-1.52125 -1.0575,-2.535 0,-1.02375 0.35625,-1.8725 1.0675,-2.5525 0.71125,-0.6825 1.60375,-1.02375 2.67625,-1.02375 m -0.075,1.2475 c -0.665,0 -1.2075,0.2175 -1.6325,0.65375 -0.425,0.43125 -0.64,0.98875 -0.64,1.6625 0,0.6675 0.21875,1.21125 0.655,1.635 0.435,0.42125 0.99375,0.6325 1.6775,0.6325 0.6775,0 1.2325,-0.2125 1.66625,-0.6425 0.4325,-0.425 0.65,-0.97375 0.65,-1.6425 0,-0.6625 -0.22625,-1.21375 -0.67625,-1.645 -0.45,-0.43625 -1.0175,-0.65375 -1.7,-0.65375"
           inkscape:connector-curvature="0" />
        <path
           inkscape:connector-curvature="0"
           d="m 508.63894,616.17161 1.3825,0 0,10.60625 -1.3825,0 0,-10.60625 z"
           style="fill:#004fa3;fill-opacity:1;fill-rule:nonzero;stroke:none"
           id="path128" />
        <path
           id="path140"
           style="fill:#004fa3;fill-opacity:1;fill-rule:nonzero;stroke:none"
           d="m 515.35944,619.77775 c 1.0625,0 1.94625,0.345 2.65,1.03 0.70375,0.68375 1.055,1.5475 1.055,2.58625 0,1.005 -0.3575,1.845 -1.07125,2.51125 -0.71375,0.665 -1.61375,0.99625 -2.69625,0.99625 -1.0475,0 -1.9225,-0.3375 -2.6275,-1.0125 -0.7025,-0.67875 -1.05375,-1.52125 -1.05375,-2.535 0,-1.02375 0.35625,-1.8725 1.06625,-2.5525 0.7125,-0.6825 1.6025,-1.02375 2.6775,-1.02375 m -0.0775,1.2475 c -0.6625,0 -1.205,0.2175 -1.63125,0.65375 -0.425,0.43125 -0.63875,0.98875 -0.63875,1.6625 0,0.6675 0.21875,1.21125 0.655,1.635 0.435,0.42125 0.99375,0.6325 1.67625,0.6325 0.67875,0 1.235,-0.2125 1.6675,-0.6425 0.4325,-0.425 0.64875,-0.97375 0.64875,-1.6425 0,-0.6625 -0.225,-1.21375 -0.67625,-1.645 -0.44875,-0.43625 -1.0175,-0.65375 -1.70125,-0.65375"
           inkscape:connector-curvature="0" />
        <path
           id="path144"
           style="fill:#004fa3;fill-opacity:1;fill-rule:nonzero;stroke:none"
           d="m 520.24219,622.2075 c 0,-0.74375 0.27125,-1.33125 0.81375,-1.765 0.54625,-0.43125 1.28875,-0.65125 2.23125,-0.65125 l 2.87625,0 0,1.08125 -1.41125,0 c 0.27375,0.27875 0.4625,0.53 0.56875,0.76125 0.1075,0.225 0.15875,0.48625 0.15875,0.77875 0,0.36375 -0.1025,0.725 -0.31,1.075 -0.20875,0.35125 -0.47375,0.62 -0.80125,0.81 -0.32625,0.18625 -0.8625,0.335 -1.605,0.4475 -0.5225,0.0725 -0.7825,0.25625 -0.7825,0.53875 0,0.1625 0.0962,0.29625 0.29125,0.4 0.195,0.10125 0.5475,0.21 1.06,0.32125 0.855,0.1875 1.405,0.33375 1.65125,0.44 0.245,0.10625 0.4675,0.2575 0.6625,0.45625 0.33625,0.335 0.5025,0.755 0.5025,1.26125 0,0.6625 -0.29375,1.19125 -0.88375,1.585 -0.59125,0.39625 -1.37875,0.59375 -2.365,0.59375 -0.9975,0 -1.7925,-0.20125 -2.38875,-0.59625 -0.595,-0.3975 -0.89375,-0.93125 -0.89375,-1.6 0,-0.9475 0.5875,-1.555 1.75375,-1.83 -0.4625,-0.29625 -0.69625,-0.5925 -0.69625,-0.88625 0,-0.22375 0.1,-0.4275 0.29875,-0.61125 0.2,-0.17875 0.47,-0.31375 0.80875,-0.4 -1.0275,-0.455 -1.54,-1.19375 -1.54,-2.21 m 2.26875,4.89625 c -0.465,0 -0.84625,0.1025 -1.1425,0.29875 -0.29625,0.195 -0.445,0.45125 -0.445,0.76 0,0.72 0.65,1.0775 1.945,1.0775 0.61375,0 1.0875,-0.0875 1.42375,-0.27 0.33625,-0.17875 0.505,-0.43375 0.505,-0.76375 0,-0.32375 -0.2125,-0.585 -0.6375,-0.79125 -0.425,-0.2075 -0.975,-0.31125 -1.64875,-0.31125 m 0.3275,-6.10875 c -0.375,0 -0.695,0.12625 -0.95625,0.37625 -0.26375,0.255 -0.395,0.5575 -0.395,0.91125 0,0.36 0.12875,0.6575 0.38625,0.89375 0.25875,0.23625 0.585,0.355 0.98,0.355 0.38875,0 0.715,-0.1225 0.97625,-0.36125 0.26125,-0.2425 0.39,-0.54125 0.39,-0.90125 0,-0.36375 -0.13125,-0.66875 -0.395,-0.9125 -0.2625,-0.24 -0.59125,-0.36125 -0.98625,-0.36125"
           inkscape:connector-curvature="0" />
        <path
           id="path148"
           style="fill:#004fa3;fill-opacity:1;fill-rule:nonzero;stroke:none"
           d="m 531.83519,619.79211 1.55,0 -4.95,10.54875 -1.5425,0 2.37125,-5.06125 -2.6975,-5.4875 1.575,0 1.88625,3.94625 1.8075,-3.94625 z"
           inkscape:connector-curvature="0" />
        <path
           id="path160"
           style="fill:#004fa3;fill-opacity:1;fill-rule:nonzero;stroke:none"
           d="m 416.17356,638.91088 0,2.96875 c 0,0.23625 0.0813,0.3575 0.2425,0.3575 0.1675,0 0.42875,-0.125 0.7825,-0.37375 l 0,0.8425 c -0.31375,0.2025 -0.565,0.34125 -0.75625,0.41375 -0.18875,0.0725 -0.38625,0.11 -0.59625,0.11 -0.59125,0 -0.94125,-0.2325 -1.0475,-0.6975 -0.58625,0.45375 -1.2125,0.68125 -1.875,0.68125 -0.485,0 -0.89125,-0.15875 -1.215,-0.4825 -0.32375,-0.31875 -0.48625,-0.72375 -0.48625,-1.20875 0,-0.4425 0.1575,-0.835 0.475,-1.18125 0.31625,-0.34875 0.765,-0.62125 1.3475,-0.82125 l 1.77,-0.60875 0,-0.3725 c 0,-0.8425 -0.42125,-1.26 -1.26125,-1.26 -0.755,0 -1.4875,0.3875 -2.20125,1.1675 l 0,-1.51 c 0.53625,-0.63125 1.3075,-0.94875 2.315,-0.94875 0.755,0 1.36,0.19625 1.815,0.59125 0.15125,0.1275 0.28875,0.295 0.41,0.50625 0.1225,0.20875 0.19875,0.4175 0.2325,0.63 0.0325,0.20875 0.0487,0.6075 0.0487,1.19625 m -1.35875,2.8175 0,-2.075 -0.9275,0.35875 c -0.47,0.1875 -0.80375,0.37375 -0.9975,0.56625 -0.195,0.1875 -0.2925,0.4225 -0.2925,0.70625 0,0.28875 0.0913,0.525 0.27625,0.70625 0.185,0.185 0.42375,0.27625 0.7175,0.27625 0.44,0 0.84875,-0.1825 1.22375,-0.53875"
           inkscape:connector-curvature="0" />
        <path
           id="path164"
           style="fill:#004fa3;fill-opacity:1;fill-rule:nonzero;stroke:none"
           d="m 419.80331,636.12213 0,0.89125 c 0.6175,-0.685 1.3175,-1.02625 2.1025,-1.02625 0.43625,0 0.84125,0.11125 1.21625,0.3375 0.37375,0.225 0.65875,0.53375 0.85375,0.92625 0.195,0.39 0.2925,1.01375 0.2925,1.865 l 0,3.9925 -1.3825,0 0,-3.97625 c 0,-0.715 -0.10875,-1.2275 -0.32625,-1.5325 -0.2175,-0.30625 -0.58125,-0.46 -1.09375,-0.46 -0.6525,0 -1.20625,0.32625 -1.6625,0.98125 l 0,4.9875 -1.4125,0 0,-6.98625 1.4125,0 z"
           inkscape:connector-curvature="0" />
        <path
           id="path168"
           style="fill:#004fa3;fill-opacity:1;fill-rule:nonzero;stroke:none"
           d="m 430.85969,632.502 1.3875,0 0,10.60625 -2.9525,0 c -1.0325,0 -1.85625,-0.3275 -2.47125,-0.97875 -0.61625,-0.6525 -0.9225,-1.5275 -0.9225,-2.62625 0,-1.02875 0.3225,-1.8725 0.9675,-2.5375 0.64625,-0.66125 1.47,-0.99375 2.4725,-0.99375 0.465,0 0.97125,0.0987 1.51875,0.29375 l 0,-3.76375 z m 0,9.4225 0,-4.42875 c -0.43125,-0.2175 -0.86625,-0.32625 -1.30625,-0.32625 -0.6875,0 -1.2375,0.22625 -1.64375,0.6775 -0.40875,0.45125 -0.6125,1.0575 -0.6125,1.8225 0,0.71625 0.1775,1.2725 0.5325,1.66125 0.2125,0.23375 0.4375,0.3925 0.67625,0.4725 0.23625,0.0787 0.665,0.12125 1.2825,0.12125 l 1.07125,0 z"
           inkscape:connector-curvature="0" />
        <path
           id="path172"
           style="fill:#004fa3;fill-opacity:1;fill-rule:nonzero;stroke:none"
           d="m 438.68044,643.10888 0,-10.60625 2.6575,0 c 1.07375,0 1.92625,0.2625 2.555,0.79375 0.63,0.53375 0.945,1.2525 0.945,2.1575 0,0.62 -0.15375,1.15375 -0.4625,1.6025 -0.31,0.45125 -0.75125,0.7875 -1.32875,1.00875 0.33875,0.22375 0.67125,0.52875 0.995,0.91375 0.32375,0.38375 0.77875,1.05375 1.36625,2.01125 0.37,0.60125 0.66625,1.055 0.88875,1.3575 l 0.56125,0.76125 -1.80625,0 -0.4625,-0.7 c -0.015,-0.025 -0.045,-0.0675 -0.0912,-0.1275 l -0.29625,-0.4175 -0.47,-0.77625 -0.5075,-0.8275 c -0.31375,-0.4375 -0.6025,-0.78125 -0.8625,-1.04 -0.26125,-0.25875 -0.49625,-0.44375 -0.70625,-0.55875 -0.21,-0.11125 -0.565,-0.17 -1.06125,-0.17 l -0.395,0 0,4.6175 -1.51875,0 z m 1.97375,-9.3175 -0.455,0 0,3.34875 0.5775,0 c 0.7675,0 1.2975,-0.0638 1.5825,-0.1975 0.28625,-0.13 0.5075,-0.33 0.66875,-0.5975 0.16,-0.265 0.23875,-0.565 0.23875,-0.9075 0,-0.3325 -0.0875,-0.635 -0.26625,-0.90375 -0.175,-0.27375 -0.42625,-0.46375 -0.7475,-0.575 -0.32125,-0.1125 -0.85375,-0.1675 -1.59875,-0.1675"
           inkscape:connector-curvature="0" />
        <path
           id="path176"
           style="fill:#004fa3;fill-opacity:1;fill-rule:nonzero;stroke:none"
           d="m 453.79081,639.73663 -4.91125,0 c 0.0337,0.66875 0.25875,1.20125 0.67,1.595 0.41375,0.39625 0.94625,0.59375 1.5975,0.59375 0.9125,0 1.75375,-0.285 2.52375,-0.85125 l 0,1.34875 c -0.42625,0.285 -0.84625,0.48875 -1.265,0.60875 -0.4175,0.12125 -0.9075,0.1825 -1.46875,0.1825 -0.77,0 -1.3925,-0.1575 -1.87,-0.4775 -0.475,-0.3175 -0.85625,-0.74875 -1.14125,-1.2875 -0.28625,-0.5375 -0.4275,-1.1625 -0.4275,-1.87 0,-1.065 0.3,-1.9275 0.9025,-2.59375 0.60125,-0.665 1.38375,-0.9975 2.345,-0.9975 0.92625,0 1.66625,0.32125 2.2175,0.96875 0.5525,0.65 0.8275,1.5175 0.8275,2.6075 l 0,0.1725 z m -4.8825,-0.82625 3.51625,0 c -0.035,-0.55 -0.19875,-0.97875 -0.49375,-1.2775 -0.2925,-0.2975 -0.68875,-0.44875 -1.185,-0.44875 -0.49625,0 -0.90125,0.15125 -1.2175,0.44875 -0.31625,0.29875 -0.52125,0.7275 -0.62,1.2775"
           inkscape:connector-curvature="0" />
        <path
           id="path180"
           style="fill:#004fa3;fill-opacity:1;fill-rule:nonzero;stroke:none"
           d="m 454.94544,642.60875 0,-1.48875 c 0.39,0.27125 0.78875,0.4925 1.19625,0.66375 0.4075,0.16875 0.75,0.2525 1.02875,0.2525 0.28875,0 0.5375,-0.07 0.74375,-0.21 0.2075,-0.145 0.31125,-0.3125 0.31125,-0.51 0,-0.2025 -0.0675,-0.37 -0.2,-0.505 -0.135,-0.1325 -0.42625,-0.32875 -0.87,-0.58125 -0.89125,-0.49375 -1.47375,-0.9175 -1.75,-1.2725 -0.27625,-0.35125 -0.415,-0.735 -0.415,-1.15 0,-0.535 0.21,-0.97375 0.62625,-1.3125 0.4175,-0.34 0.955,-0.5075 1.615,-0.5075 0.6825,0 1.38375,0.19125 2.1025,0.5775 l 0,1.36375 c -0.82,-0.495 -1.49,-0.745 -2.01375,-0.745 -0.2675,0 -0.48375,0.0575 -0.64875,0.17375 -0.1625,0.11625 -0.24625,0.2625 -0.24625,0.45 0,0.165 0.0763,0.3175 0.22375,0.4675 0.15,0.14375 0.4125,0.32375 0.78625,0.53 l 0.4925,0.27875 c 1.16625,0.65875 1.7475,1.3875 1.7475,2.18625 0,0.5725 -0.22375,1.0425 -0.67,1.4125 -0.44875,0.365 -1.025,0.5475 -1.72875,0.5475 -0.415,0 -0.785,-0.0438 -1.1075,-0.135 -0.325,-0.0875 -0.73375,-0.25 -1.22375,-0.48625"
           inkscape:connector-curvature="0" />
        <path
           id="path184"
           style="fill:#004fa3;fill-opacity:1;fill-rule:nonzero;stroke:none"
           d="m 467.22306,639.73663 -4.9125,0 c 0.035,0.66875 0.26,1.20125 0.67125,1.595 0.415,0.39625 0.94625,0.59375 1.59875,0.59375 0.9125,0 1.75375,-0.285 2.52125,-0.85125 l 0,1.34875 c -0.425,0.285 -0.845,0.48875 -1.26375,0.60875 -0.4175,0.12125 -0.90875,0.1825 -1.47,0.1825 -0.77,0 -1.39125,-0.1575 -1.86875,-0.4775 -0.475,-0.3175 -0.85625,-0.74875 -1.1425,-1.2875 -0.285,-0.5375 -0.4275,-1.1625 -0.4275,-1.87 0,-1.065 0.30125,-1.9275 0.90375,-2.59375 0.6025,-0.665 1.38375,-0.9975 2.345,-0.9975 0.9275,0 1.66625,0.32125 2.2175,0.96875 0.5525,0.65 0.8275,1.5175 0.8275,2.6075 l 0,0.1725 z m -4.88125,-0.82625 3.515,0 c -0.035,-0.55 -0.19875,-0.97875 -0.4925,-1.2775 -0.295,-0.2975 -0.68875,-0.44875 -1.18625,-0.44875 -0.495,0 -0.90125,0.15125 -1.2175,0.44875 -0.31625,0.29875 -0.52125,0.7275 -0.61875,1.2775"
           inkscape:connector-curvature="0" />
        <path
           id="path188"
           style="fill:#004fa3;fill-opacity:1;fill-rule:nonzero;stroke:none"
           d="m 473.10856,638.91088 0,2.96875 c 0,0.23625 0.08,0.3575 0.2425,0.3575 0.1675,0 0.42875,-0.125 0.7825,-0.37375 l 0,0.8425 c -0.31375,0.2025 -0.56625,0.34125 -0.75625,0.41375 -0.18875,0.0725 -0.38875,0.11 -0.595,0.11 -0.5925,0 -0.9425,-0.2325 -1.04625,-0.6975 -0.58875,0.45375 -1.21375,0.68125 -1.87875,0.68125 -0.485,0 -0.88875,-0.15875 -1.2125,-0.4825 -0.32625,-0.31875 -0.4875,-0.72375 -0.4875,-1.20875 0,-0.4425 0.15875,-0.835 0.475,-1.18125 0.31625,-0.34875 0.76625,-0.62125 1.34875,-0.82125 l 1.76875,-0.60875 0,-0.3725 c 0,-0.8425 -0.42,-1.26 -1.26,-1.26 -0.75625,0 -1.48875,0.3875 -2.2025,1.1675 l 0,-1.51 c 0.53625,-0.63125 1.3075,-0.94875 2.315,-0.94875 0.755,0 1.36,0.19625 1.815,0.59125 0.1525,0.1275 0.29,0.295 0.41,0.50625 0.1225,0.20875 0.2,0.4175 0.23125,0.63 0.0337,0.20875 0.05,0.6075 0.05,1.19625 m -1.35875,2.8175 0,-2.075 -0.92625,0.35875 c -0.47,0.1875 -0.8025,0.37375 -0.99875,0.56625 -0.19375,0.1875 -0.29125,0.4225 -0.29125,0.70625 0,0.28875 0.0925,0.525 0.27625,0.70625 0.185,0.185 0.42375,0.27625 0.71625,0.27625 0.44125,0 0.84875,-0.1825 1.22375,-0.53875"
           inkscape:connector-curvature="0" />
        <path
           id="path192"
           style="fill:#004fa3;fill-opacity:1;fill-rule:nonzero;stroke:none"
           d="m 476.83806,636.12213 0,1.605 0.0763,-0.125 c 0.66625,-1.07625 1.33625,-1.615 2.0025,-1.615 0.52375,0 1.065,0.2625 1.63375,0.79 l -0.73,1.21125 c -0.47875,-0.4525 -0.92625,-0.68 -1.33625,-0.68 -0.44625,0 -0.83,0.21375 -1.1575,0.63625 -0.3275,0.42625 -0.48875,0.92875 -0.48875,1.5125 l 0,3.65125 -1.39125,0 0,-6.98625 1.39125,0 z"
           inkscape:connector-curvature="0" />
        <path
           id="path196"
           style="fill:#004fa3;fill-opacity:1;fill-rule:nonzero;stroke:none"
           d="m 486.36781,641.477 0,1.36375 c -0.695,0.26125 -1.3725,0.38875 -2.035,0.38875 -1.095,0 -1.96625,-0.32375 -2.61625,-0.9725 -0.65125,-0.64625 -0.975,-1.51625 -0.975,-2.6025 0,-1.0975 0.31625,-1.985 0.94875,-2.6575 0.6325,-0.675 1.465,-1.01 2.49625,-1.01 0.36,0 0.6825,0.0338 0.96875,0.10125 0.28625,0.0712 0.63875,0.1975 1.06,0.385 l 0,1.47125 c -0.69875,-0.445 -1.3475,-0.66625 -1.94375,-0.66625 -0.62375,0 -1.135,0.2175 -1.535,0.65625 -0.39875,0.43625 -0.59875,0.99625 -0.59875,1.67625 0,0.7125 0.21625,1.2775 0.64875,1.69875 0.4325,0.41875 1.01625,0.63 1.75,0.63 0.5325,0 1.1425,-0.1525 1.83125,-0.4625"
           inkscape:connector-curvature="0" />
        <path
           id="path200"
           style="fill:#004fa3;fill-opacity:1;fill-rule:nonzero;stroke:none"
           d="m 487.90781,632.502 1.3825,0 0,4.54125 c 0.5775,-0.705 1.2925,-1.05625 2.15,-1.05625 0.46375,0 0.8825,0.1175 1.2525,0.3475 0.36875,0.2325 0.645,0.55625 0.82375,0.965 0.18,0.4125 0.27,1.02 0.27,1.8325 l 0,3.97625 -1.38375,0 0,-4.31875 c 0,-0.51125 -0.12375,-0.92375 -0.375,-1.2375 -0.25,-0.31 -0.58125,-0.46375 -0.99125,-0.46375 -0.3025,0 -0.58875,0.0788 -0.85875,0.235 -0.2675,0.155 -0.56375,0.42 -0.8875,0.78125 l 0,5.00375 -1.3825,0 0,-10.60625 z"
           inkscape:connector-curvature="0" />
      </g>
      <g
         id="g4221">
        <g
           id="g4206">
          <path
             id="path202"
             d="m 346.75,569.15625 0,60.3125 c 0.40215,-1.42097 1.07686,-2.98045 1.90625,-4.375 2.37375,-3.98875 5.94125,-8.00125 10.3125,-11.625 0.32875,-0.23875 0.7325,-0.43 0.9375,-0.59375 0.20875,-0.15875 0.65375,-0.5925 0.96875,-0.84375 0.315,-0.25375 0.8975,-0.40875 1.09375,-0.5625 0.20625,-0.15375 0.4,-0.34 0.59375,-0.5 0.1875,-0.16 3.96625,-1.82875 6.09375,-1.96875 1.2925,-0.08 3.61625,0.1225 4.625,0.40625 C 374.29,609.6925 374.366,609.84 374.375,610 c 0.0188,0.3175 -0.295,0.30875 -1.40625,0.5 -0.56,0.1 -1.67375,0.23875 -2.75,0.96875 -1.54375,1.0425 -2.20875,1.94 -3.5625,2.5 -0.3925,0.16625 -1.5525,1.36875 -3,2.1875 -1.41,0.80625 -1.88875,1.64625 -4.03125,3.1875 -3.4275,2.47625 -6.59,5.85625 -8,7.5 -2.23375,2.5975 -2.61125,4.905 -0.53125,4.75 3.15375,-0.23 8.71625,-4.43375 10.96875,-6.25 3.28375,-2.6525 9.64625,-9.22875 9.9375,-9.65625 0.075,-0.1125 0.19495,-0.3325 0.28125,-0.46875 0.0788,-0.125 0.375,-0.4375 0.375,-0.4375 0.4975,-0.44625 1.0675,-1.01875 1.53125,-1.75 1.495,-3.03125 2.22875,-4.09 3.875,-5.65625 1.71875,-1.64625 3.21375,-1.505 3.8125,-1.0625 0.59375,0.44375 0.9975,1.11125 0.78125,1.78125 -0.215,0.675 -1.6925,1.605 -2.0625,1.96875 -0.5,0.50375 -1.33875,1.39125 -1.96875,2.03125 -0.55875,1.075 -1.14,1.6075 -2.09375,2.34375 l -0.40625,0.71875 c -1.05625,1.77 -2.14625,3.60375 -3.03125,7.5 -0.43875,1.77 -0.5925,3.3225 -0.5,4.75 0.07,1.12 0.5825,2.14125 0.875,2.6875 0.295,0.55 0.15125,0.53625 0.5625,0.8125 0.4025,0.26875 0.42625,0.55 0.59375,0.625 0.24375,0.115 0.5875,0.11875 0.8125,0.25 0.4175,0.24125 1.15,0.47125 2.125,0.40625 2.575,-0.1675 6.7,-1.4 9.4375,-4 0.0763,-0.0738 0.37625,-0.2825 0.65625,0 0.25995,0.23375 0.2,0.5625 0,0.75 -4.43125,4.725 -9.2275,6.36125 -12.8125,6.5 -3.2475,0.12125 -7.04125,-1.33 -7.1875,-6.71875 -0.0412,-1.5125 0.0288,-3.4075 0.90625,-4.90625 0.185,-0.31125 0.0275,-0.6375 -0.28125,-0.53125 -0.64,0.20875 -9.12125,9.88 -15,11.9375 -3.87364,1.36054 -5.89529,0.2177 -6.53125,-0.96875 l 0,8.96875 53.09375,0 0,-74.0625 -53.09375,0 z"
             style="fill:#004fa3;fill-opacity:1;fill-rule:nonzero;stroke:none"
             inkscape:connector-curvature="0" />
          <path
             inkscape:connector-curvature="0"
             d="m 398.86206,585.806 c -0.59375,0.025 -7.965,1.905 -7.965,1.905 0,0 0.88,-6.33125 0.9175,-6.8275 0.0363,-0.49125 -0.36625,-0.95375 -1.065,-0.93375 -0.705,0.0213 -1.02125,0.8075 -1.02125,0.8075 -0.0625,0.1125 -3.85875,7.8275 -3.85875,7.8275 0,0 -4.9475,0.6675 -5.39375,0.73875 -0.6325,0.10375 -0.94125,0.64125 -0.95875,1.11 -0.015,0.5 0.2125,1.005 0.97125,1.07 0.8075,0.0762 3.50875,0.36125 3.50875,0.36125 0,0 -3.815,6.365 -3.995,6.705 -0.2375,0.44875 -0.0737,1.03 0.29625,1.3775 0.3475,0.33125 0.965,0.2375 1.3575,0.007 0.59,-0.345 5.3925,-3.93125 5.3925,-3.93125 0,0 0.6975,2.88625 0.95125,3.85625 0.24625,0.975 0.9925,0.925 1.3175,0.88 0.39375,-0.0563 0.61,-0.48125 0.6425,-0.94625 0.0263,-0.4375 0.36125,-5.71625 0.36125,-5.71625 0,0 9.07125,-5.9575 9.5175,-6.4175 l 0,-1.4675 c -0.215,-0.2825 -0.555,-0.425 -0.97625,-0.40625 m -2.67625,2.16375 -5.70875,4.10875 0.3325,-2.845 5.37625,-1.26375 z m -8.4675,5.9975 -1.83375,-2.665 0.50625,-1.1275 2.89375,-0.60125 -0.4725,3.715 -1.09375,0.67875 z m -1.0225,0.535 -4.57875,3.315 3.24875,-5.3275 1.33,2.0125 z m 0.65375,-6.07 2.71125,-5.23125 -0.6975,4.79875 -2.01375,0.4325 z"
             style="fill:#ef3e33;fill-opacity:1;fill-rule:nonzero;stroke:none"
             id="path218" />
        </g>
        <g
           id="g4210">
          <path
             inkscape:connector-curvature="0"
             d="m 350.25481,649.34875 c -0.59,-0.635 -1.15875,-0.82 -1.625,-0.82 -0.64,0 -1.0975,0.38 -1.0975,0.9375 0,1.5075 2.995,1.48375 2.995,3.97875 0,1.235 -0.82,2.13625 -1.935,2.13625 -0.75625,0 -1.36625,-0.23125 -1.9375,-0.73 l 0,-1.4275 c 0.50375,0.74125 1.13875,1.14125 1.82,1.14125 0.77,0 1.12875,-0.55125 1.12875,-0.985 0,-1.625 -2.98875,-1.815 -2.98875,-3.965 0,-1.27875 0.8275,-2.09625 2.095,-2.09625 0.52625,0 1.0575,0.18375 1.545,0.5475 l 0,1.2825 z"
             style="fill:#004fa3;fill-opacity:1;fill-rule:nonzero;stroke:none"
             id="path222" />
          <path
             id="path224"
             style="fill:#004fa3;fill-opacity:1;fill-rule:nonzero;stroke:none"
             d="m 351.62519,655.47911 0.99375,0 0,-7.86125 -0.99375,0 0,7.86125 z"
             inkscape:connector-curvature="0" />
          <path
             inkscape:connector-curvature="0"
             d="m 360.54894,655.47836 -0.855,0 -4.62375,-6.05125 0,6.05125 -0.9275,0 0,-7.86125 0.78375,0 4.69,6.08875 0,-6.08875 0.9325,0 0,7.86125 z"
             style="fill:#004fa3;fill-opacity:1;fill-rule:nonzero;stroke:none"
             id="path228" />
          <path
             inkscape:connector-curvature="0"
             d="m 367.88594,654.93275 c -0.925,0.46375 -1.6775,0.64875 -2.63875,0.64875 -2.1225,0 -3.69,-1.68 -3.69,-3.98625 0,-2.315 1.6075,-4.07625 3.71625,-4.07625 0.80875,0 1.38375,0.14625 2.4725,0.665 l 0,1.14125 c -0.81875,-0.50875 -1.66375,-0.77375 -2.4875,-0.77375 -1.50375,0 -2.67125,1.30375 -2.67125,3.01 0,1.74625 1.15875,2.98125 2.8025,2.98125 0.53125,0 1.03,-0.1325 1.49875,-0.30875 l 0,-1.61375 -1.3275,0 0,-1.0125 2.325,0 0,3.325 z"
             style="fill:#004fa3;fill-opacity:1;fill-rule:nonzero;stroke:none"
             id="path240" />
          <path
             inkscape:connector-curvature="0"
             d="m 375.33244,655.47836 -1.01875,0 -0.925,-2.31625 -2.9425,0 -0.87125,2.31625 -1.01125,0 2.97,-7.9 0.70375,0 3.095,7.9 z m -4.49375,-3.32625 2.1475,0 -1.11875,-2.85 -1.02875,2.85 z"
             style="fill:#004fa3;fill-opacity:1;fill-rule:nonzero;stroke:none"
             id="path244" />
          <path
             inkscape:connector-curvature="0"
             d="m 378.19856,647.61775 c 1.505,0 2.2025,1.02125 2.2025,2.26125 0,1.23 -0.735,2.2 -2.335,2.2 l -1.02875,0 0,3.4 -0.9975,0 0,-7.86125 2.15875,0 z m -1.16125,3.44375 1.11875,0 c 0.74625,0 1.21625,-0.44375 1.21625,-1.22875 0,-0.57625 -0.2725,-1.19375 -1.17375,-1.19375 l -1.16125,0 0,2.4225 z"
             style="fill:#004fa3;fill-opacity:1;fill-rule:nonzero;stroke:none"
             id="path256" />
          <path
             inkscape:connector-curvature="0"
             d="m 384.77581,647.51838 c 2.2775,0 3.71875,1.84375 3.71875,4.02875 0,2.12 -1.3975,4.03375 -3.74,4.03375 -2.26625,0 -3.6975,-1.9 -3.6975,-4.03375 0,-2.1775 1.47375,-4.02875 3.71875,-4.02875 m 0,7.025 c 1.55,0 2.7,-1.2775 2.7,-2.99625 0,-1.725 -1.15,-2.995 -2.7,-2.995 -1.54,0 -2.69125,1.27 -2.69125,2.995 0,1.71875 1.15125,2.99625 2.69125,2.99625"
             style="fill:#004fa3;fill-opacity:1;fill-rule:nonzero;stroke:none"
             id="path260" />
          <path
             inkscape:connector-curvature="0"
             d="m 391.47731,647.61775 c 1.40375,0 2.275,0.8425 2.275,2.20375 0,0.91125 -0.42125,1.58875 -1.1575,1.92125 0.6225,0.4775 1.01625,1.2025 1.54,2.18125 0.29625,0.54125 0.4675,0.80375 0.94625,1.555 l -1.1875,0 -0.915,-1.61625 c -0.91,-1.61 -1.33,-1.79625 -1.83625,-1.79625 l -0.4125,0 0,3.4125 -0.99625,0 0,-7.86125 1.74375,0 z m -0.7475,3.435 0.63375,0 c 1.0725,0 1.37375,-0.62 1.36375,-1.27625 -0.009,-0.73625 -0.39375,-1.1925 -1.36375,-1.1925 l -0.63375,0 0,2.46875 z"
             style="fill:#004fa3;fill-opacity:1;fill-rule:nonzero;stroke:none"
             id="path264" />
          <path
             inkscape:connector-curvature="0"
             d="m 399.76656,648.63898 -2.93375,0 0,2.365 2.83375,0 0,1.01875 -2.83375,0 0,2.4425 3.0275,0 0,1.0125 -4.0225,0 0,-7.86 3.92875,0 0,1.02125 z"
             style="fill:#004fa3;fill-opacity:1;fill-rule:nonzero;stroke:none"
             id="path268" />
        </g>
      </g>
    </g>
  </g>
</svg>
